<svg id="Layer_1" data-name="Layer 1" xmlns="http://www.w3.org/2000/svg" width="80" height="80" viewBox="0 0 80 80">
  <polygon points="40 2 7 21 7 59 40 78 73 59 73 21 40 2" style="fill: #1d1d1d"/>
  <polygon points="40 23.69 40 7.38 11.67 23.69 25.84 31.84 40 23.69" style="fill: #bbb529"/>
  <polygon points="68.33 23.69 40 7.38 40 23.69 54.16 31.84 68.33 23.69" style="fill: #7676eb"/>
  <polygon points="54.16 31.84 54.16 48.16 68.33 56.31 68.33 23.69 54.16 31.84" style="fill: #736a4a"/>
  <polygon points="54.16 48.16 40 56.31 40 72.62 68.33 56.31 54.16 48.16" style="fill: #ff5d38"/>
  <polygon points="11.67 56.31 40 72.62 40 56.31 25.84 48.16 11.67 56.31" style="fill: #44c3bf"/>
  <polygon points="25.84 31.84 11.67 23.69 11.67 56.31 25.84 48.16 25.84 31.84" style="fill: #d4d2a9"/>
</svg>
